<svg width="162" height="50" viewBox="0 0 162 50" fill="none" xmlns="http://www.w3.org/2000/svg">
<path d="M136.54 0.675781H24.4899C11.0694 0.675781 0.189941 11.5662 0.189941 25.0001C0.189941 38.4341 11.0694 49.3244 24.4899 49.3244H136.54C149.96 49.3244 160.84 38.4341 160.84 25.0001C160.84 11.5662 149.96 0.675781 136.54 0.675781Z" fill="#FFE600"/>
<path d="M38.4385 9.39258C25.7611 9.39258 15.4854 15.9773 15.4854 24.1009C15.4854 32.2244 25.7611 39.4468 38.4385 39.4468C51.1156 39.4468 61.391 32.2237 61.391 24.1009C61.391 15.9779 51.115 9.39258 38.4385 9.39258Z" fill="#00BCFF"/>
<path d="M30.9677 19.5546C30.9563 19.577 30.732 19.8095 30.8776 19.9964C31.2322 20.4506 32.3287 20.711 33.4373 20.4616C34.0974 20.3134 34.9435 19.6389 35.7632 18.9877C36.5457 18.2758 37.4434 17.7024 38.4179 17.2922C39.0403 17.0638 39.7205 17.0461 40.354 17.2415C40.9974 17.4808 41.5945 17.8299 42.1191 18.2731C43.6577 19.432 49.8455 24.8422 50.9148 25.7772C54.2002 24.4085 57.6016 23.3383 61.0781 22.5791C60.626 19.8022 58.9585 17.1549 56.4004 15.0746C52.8348 16.5746 48.1869 17.4728 43.9264 15.3889C42.4786 14.7326 40.9135 14.376 39.3248 14.3408C35.9445 14.4196 34.4802 15.8847 32.9306 17.4358L30.9677 19.5546Z" fill="white"/>
<path d="M50.6658 26.3661C50.5928 26.3009 43.3904 19.9878 41.7583 18.7593C41.1898 18.2526 40.4886 17.9191 39.7373 17.798C39.4138 17.7722 39.0884 17.8036 38.7757 17.8906C37.8121 18.2543 36.9205 18.7863 36.1428 19.4622C35.2307 20.1903 34.3704 20.8756 33.5716 21.0549C32.6063 21.2536 31.6019 21.1024 30.7377 20.6284C30.5353 20.5044 30.3721 20.3255 30.2673 20.1122C30.2095 19.9488 30.2016 19.7721 30.2445 19.6041C30.2874 19.4363 30.3792 19.2849 30.5082 19.1695L32.496 17.0159C32.7274 16.7851 32.9596 16.5537 33.1986 16.3264C32.5855 16.4187 31.9799 16.5553 31.3865 16.7352C30.7031 16.9625 29.9921 17.0953 29.2728 17.1301C28.548 17.0565 27.8277 16.9437 27.1151 16.7922C24.9903 16.2928 22.9162 15.5975 20.9192 14.7153C18.0933 16.8225 16.2531 19.4098 15.707 22.3117C16.113 22.4191 17.177 22.6622 17.4519 22.7233C23.8473 24.1475 25.8389 25.6147 26.2002 25.9211C26.4127 25.6815 26.6767 25.4933 26.9724 25.3707C27.2679 25.248 27.5874 25.1941 27.9068 25.2129C28.2263 25.2318 28.5373 25.3229 28.8165 25.4795C29.0957 25.6361 29.3357 25.854 29.5187 26.117C29.9501 25.7678 30.4883 25.578 31.0429 25.5798C31.3545 25.5828 31.6635 25.637 31.9575 25.7402C32.2425 25.8315 32.5048 25.9826 32.7268 26.1836C32.9488 26.3845 33.1254 26.6306 33.2447 26.9055C33.5242 26.7786 33.8278 26.7138 34.1345 26.7159C34.5016 26.7205 34.8637 26.8005 35.1985 26.9509C35.6641 27.1695 36.0418 27.5399 36.2698 28.0015C36.4978 28.4633 36.5628 28.9888 36.4538 29.4922C36.5383 29.483 36.6234 29.4786 36.7084 29.4787C37.3806 29.4798 38.025 29.7478 38.5002 30.224C38.9754 30.7002 39.2427 31.3457 39.2435 32.019C39.2435 32.4378 39.1391 32.8499 38.94 33.2182C39.6019 33.6233 40.3665 33.8284 41.142 33.8088C41.3354 33.8088 41.5267 33.769 41.704 33.6915C41.8812 33.6141 42.0405 33.5009 42.172 33.3588C42.2359 33.269 42.3023 33.1636 42.2405 33.0876L40.4359 31.0803C40.4359 31.0803 40.1391 30.7987 40.2372 30.6903C40.3386 30.5786 40.5222 30.7387 40.6525 30.8476C41.5705 31.6156 42.6914 32.7751 42.6914 32.7751C42.7111 32.7876 42.7848 32.9347 43.1994 33.0091C43.4472 33.0524 43.7012 33.0452 43.9462 32.9879C44.1912 32.9306 44.4222 32.8245 44.6255 32.676C44.7405 32.5794 44.8457 32.4717 44.9394 32.3542C44.933 32.3605 44.926 32.366 44.9183 32.3706C45.0448 32.1955 45.1085 31.9826 45.0992 31.7667C45.0898 31.5507 45.008 31.3443 44.8668 31.1807L42.7601 28.8111C42.7601 28.8111 42.4588 28.5317 42.562 28.4205C42.6536 28.3228 42.847 28.4699 42.9793 28.5797C43.646 29.1384 44.5884 30.0849 45.4915 30.9721C45.7926 31.176 46.1506 31.2791 46.5138 31.2665C46.877 31.2538 47.227 31.1261 47.5133 30.9018C47.7478 30.7722 47.9418 30.5799 48.0738 30.3465C48.2057 30.113 48.2705 29.8475 48.2609 29.5794C48.2154 29.2441 48.0587 28.934 47.8161 28.6986L44.9394 25.8003C44.9394 25.8003 44.6347 25.5402 44.7427 25.4091C44.8309 25.2983 45.027 25.4575 45.1573 25.566C46.0734 26.3344 48.5544 28.6136 48.5544 28.6136C48.8468 28.8026 49.1888 28.8999 49.5367 28.8929C49.8846 28.886 50.2225 28.7752 50.5071 28.5747C50.6899 28.4676 50.8438 28.3174 50.9555 28.1372C51.0672 27.957 51.1333 27.7521 51.148 27.5405C51.1565 27.3215 51.1179 27.1033 51.0346 26.9007C50.9515 26.698 50.8257 26.5157 50.6658 26.3661Z" fill="white"/>
<path d="M36.7077 30.0394C36.3696 30.087 36.0359 30.161 35.7096 30.2609C35.6741 30.2379 35.7369 30.0582 35.7785 29.9547C35.8218 29.8522 36.4093 28.0809 34.9768 27.4662C34.6562 27.2939 34.2888 27.2298 33.929 27.2836C33.5692 27.3372 33.2363 27.5059 32.9798 27.7644C32.9199 27.8271 32.8926 27.8218 32.886 27.7426C32.8775 27.412 32.7658 27.0922 32.5666 26.8283C32.3674 26.5644 32.0908 26.3697 31.7755 26.2713C31.3289 26.1336 30.8499 26.1441 30.4097 26.3013C29.9696 26.4585 29.592 26.7539 29.333 27.1435C29.2869 26.7941 29.1246 26.4708 28.8723 26.2252C28.62 25.9798 28.2925 25.8268 27.9425 25.7909C27.5928 25.7549 27.2409 25.8382 26.9442 26.0271C26.6473 26.2162 26.4228 26.4998 26.3069 26.8325C26.1909 27.1651 26.1904 27.5271 26.3051 27.8601C26.42 28.1931 26.6436 28.4775 26.9396 28.6675C27.2358 28.8576 27.5872 28.9421 27.9373 28.9072C28.2872 28.8725 28.6152 28.7206 28.8684 28.476C28.8774 28.4843 28.8809 28.499 28.8765 28.5287C28.7705 29.014 28.8424 29.5213 29.0792 29.9578C29.316 30.3943 29.7017 30.7306 30.1659 30.9056C30.4165 31.0025 30.6883 31.0318 30.9538 30.9908C31.2194 30.9497 31.4697 30.8397 31.6795 30.6716C31.8039 30.5839 31.8241 30.6208 31.8065 30.7382C31.7532 31.1014 31.8211 31.8794 32.9099 32.321C33.1796 32.4535 33.4848 32.4952 33.7802 32.4402C34.0755 32.3852 34.3453 32.2364 34.5496 32.0158C34.6897 31.8886 34.7279 31.9093 34.7352 32.1067C34.7527 32.4936 34.8833 32.8668 35.1106 33.1801C35.3381 33.4933 35.6523 33.7328 36.0143 33.8689C36.3764 34.0048 36.7703 34.0313 37.1472 33.9449C37.5242 33.8587 37.8675 33.6635 38.1346 33.3836C38.4018 33.1036 38.5809 32.7512 38.6501 32.3701C38.719 31.989 38.6749 31.596 38.5229 31.2399C38.3709 30.8837 38.1179 30.5801 37.7952 30.3667C37.4726 30.1533 37.0943 30.0395 36.7077 30.0394Z" fill="white"/>
<path d="M38.4331 8.78369C25.5144 8.78369 15.0425 15.6664 15.0425 24.1086C15.0425 24.3268 15.0398 24.9292 15.0398 25.0057C15.0398 33.9627 24.1929 41.2161 38.4302 41.2161C52.7534 41.2161 61.823 33.9644 61.823 25.0073V24.1086C61.8227 15.6664 51.3506 8.78369 38.4331 8.78369ZM60.7683 22.4102C57.3979 23.1572 54.1074 24.2287 50.9426 25.6096C48.7235 23.67 43.5961 19.2038 42.2075 18.1602C41.6691 17.7067 41.0566 17.3495 40.3968 17.1048C40.1094 17.014 39.8099 16.9671 39.5084 16.9657C39.1246 16.9709 38.744 17.035 38.3797 17.1563C37.4046 17.5618 36.5059 18.1317 35.7229 18.8413L35.6783 18.8765C34.8725 19.5183 34.0397 20.1821 33.4095 20.3225C33.1338 20.3848 32.8521 20.4164 32.5694 20.4168C32.2859 20.4404 32.0005 20.4077 31.7296 20.3204C31.4588 20.2332 31.2078 20.093 30.9913 19.9082C30.952 19.8577 30.978 19.7767 31.0693 19.66L31.081 19.6442L33.0337 17.5373C34.5625 16.0057 36.0069 14.5595 39.3306 14.4832C39.386 14.4815 39.4419 14.4804 39.4964 14.4804C41.0061 14.5422 42.4897 14.8942 43.8666 15.5173C45.7165 16.4436 47.7538 16.933 49.8219 16.9479C52.0842 16.9088 54.3108 16.3754 56.346 15.3852C58.7173 17.3829 60.2902 19.7888 60.7683 22.4102ZM38.437 9.68865C45.294 9.68865 51.4297 11.6573 55.5548 14.7579C53.755 15.5814 51.8049 16.0242 49.8265 16.0587C47.8911 16.0429 45.9849 15.5833 44.2542 14.7152C42.7579 14.031 41.1416 13.6486 39.4979 13.5895C39.4354 13.5895 39.3722 13.5904 39.3104 13.5918C37.3303 13.5629 35.4059 14.2472 33.8874 15.5203C32.9681 15.5686 32.0586 15.7349 31.1815 16.0152C30.5651 16.2211 29.9239 16.3441 29.275 16.381C29.0305 16.381 28.5907 16.3586 28.5511 16.3569C26.2183 15.9456 23.9302 15.3113 21.7181 14.4627C25.8349 11.5322 31.7991 9.68865 38.437 9.68865ZM20.9088 15.0745C23.7616 16.2433 27.2227 17.1459 28.3173 17.2169C28.6225 17.2371 28.9479 17.2717 29.2732 17.2723C30.0054 17.2368 30.7292 17.1021 31.4251 16.8718C31.8395 16.7554 32.2964 16.6286 32.7773 16.5367C32.6487 16.6625 32.5207 16.7903 32.3919 16.9196L30.409 19.0684C30.2582 19.2023 30.1514 19.3788 30.103 19.5748C30.0545 19.7707 30.0665 19.9768 30.1374 20.1657C30.2525 20.4048 30.4334 20.6059 30.6588 20.7453C31.3003 21.1084 32.027 21.2932 32.7638 21.2802C33.0461 21.2822 33.3277 21.2526 33.6034 21.1922C34.4351 21.0057 35.3073 20.3095 36.2307 19.5738C36.9958 18.9122 37.8695 18.3884 38.8133 18.026C39.0483 17.9634 39.2901 17.9302 39.5332 17.9271C39.5955 17.9265 39.6577 17.9303 39.7194 17.9383C40.4457 18.0577 41.1231 18.3814 41.6727 18.8717C43.301 20.0972 50.5042 26.4096 50.5752 26.4719C50.7183 26.6079 50.8307 26.7727 50.9054 26.9556C50.9799 27.1383 51.0147 27.335 51.0076 27.5323C50.9945 27.7215 50.9351 27.9046 50.8346 28.0654C50.7342 28.2263 50.5958 28.3598 50.4317 28.4542C50.1517 28.6418 49.8235 28.7442 49.4867 28.7492C49.191 28.7495 48.9013 28.6656 48.6516 28.5071C48.6252 28.4853 46.1573 26.2182 45.2483 25.4563C45.1347 25.3359 44.985 25.2559 44.8219 25.2282C44.7857 25.2275 44.7499 25.2352 44.7171 25.2506C44.6843 25.266 44.6556 25.2888 44.633 25.3172C44.4902 25.4936 44.6503 25.738 44.839 25.8983L47.7219 28.8025C47.937 29.0123 48.0771 29.2872 48.1207 29.5848C48.1282 29.8281 48.0682 30.0688 47.9474 30.2802C47.8266 30.4915 47.6497 30.6652 47.4363 30.7819C47.1366 30.9934 46.7809 31.1113 46.4142 31.1204C46.1214 31.1203 45.835 31.0333 45.5916 30.8702L45.1783 30.4622C44.4221 29.7173 43.6416 28.9467 43.0704 28.4694C42.955 28.3503 42.8043 28.2719 42.6407 28.246C42.6067 28.2453 42.5728 28.2519 42.5416 28.2653C42.5103 28.2788 42.4822 28.2987 42.4591 28.3237C42.3939 28.3963 42.3484 28.5264 42.5118 28.7426C42.5556 28.8007 42.6042 28.8552 42.6571 28.9052L44.7604 31.2722C44.8819 31.41 44.9528 31.5853 44.9615 31.769C44.9702 31.9526 44.9161 32.1337 44.8082 32.2825L44.7337 32.3767C44.672 32.4434 44.6065 32.5067 44.5376 32.5659C44.24 32.7848 43.8786 32.8994 43.5095 32.8922C43.4142 32.8926 43.3191 32.8845 43.2252 32.8682C43.0719 32.856 42.9263 32.7946 42.8106 32.6932L42.7843 32.6664C42.6698 32.5473 41.6095 31.4629 40.7323 30.7292C40.6235 30.6133 40.4797 30.5364 40.323 30.51C40.2871 30.5098 40.2514 30.5172 40.2186 30.5318C40.1858 30.5464 40.1565 30.5679 40.1328 30.5948C39.9597 30.7853 40.2203 31.0698 40.3307 31.1742L42.1242 33.1568C42.1089 33.2007 42.0862 33.2417 42.0571 33.2777C41.9927 33.3668 41.7753 33.585 41.1245 33.6668C41.0455 33.6769 40.9659 33.6817 40.8862 33.6813C40.2689 33.6415 39.6682 33.4632 39.1292 33.1591C39.3213 32.7507 39.4073 32.3002 39.3792 31.8495C39.3511 31.3988 39.2099 30.9625 38.9685 30.5811C38.7272 30.1996 38.3936 29.8856 37.9986 29.6677C37.6037 29.45 37.1602 29.3357 36.7093 29.3356C36.6779 29.3356 36.6442 29.3365 36.6128 29.3376C36.6896 28.8272 36.5986 28.3056 36.3537 27.8515C36.1088 27.3973 35.7231 27.0353 35.255 26.8199C34.9027 26.6617 34.5219 26.5775 34.1358 26.5729C33.8556 26.5715 33.5773 26.6221 33.3153 26.7218C33.0426 26.1915 32.5714 25.7907 32.0048 25.6072C31.6962 25.4976 31.3716 25.4404 31.044 25.4379C30.5071 25.4348 29.9831 25.603 29.5478 25.918C29.3499 25.6691 29.1018 25.4648 28.8196 25.3186C28.5375 25.1723 28.2277 25.0875 27.9104 25.0696C27.5933 25.0517 27.2759 25.1011 26.9791 25.2146C26.6823 25.3281 26.4129 25.5033 26.1884 25.7284C25.6296 25.3007 23.414 23.8909 17.4833 22.5422C17.1999 22.4779 16.5569 22.2934 16.1519 22.1745C16.7083 19.5077 18.3999 17.0725 20.9088 15.0745ZM31.9097 30.5387L31.8455 30.4811H31.7807C31.714 30.4861 31.6506 30.5118 31.5993 30.5546C31.3446 30.7511 31.0342 30.8617 30.7128 30.8707C30.5435 30.8692 30.3758 30.8367 30.2182 30.7744C29.783 30.6117 29.4215 30.2963 29.2009 29.8867C28.9803 29.4771 28.9158 29.0013 29.019 28.5476C29.0261 28.5145 29.0242 28.4803 29.0136 28.4483C29.0031 28.4161 28.9842 28.3875 28.9588 28.3653L28.8618 28.2859L28.771 28.3725C28.5069 28.6295 28.1529 28.7732 27.7846 28.773C27.5097 28.7741 27.2406 28.6959 27.009 28.5473C26.7776 28.399 26.5939 28.1868 26.48 27.9363C26.366 27.6859 26.3267 27.4077 26.3667 27.1354C26.4067 26.8631 26.5242 26.6082 26.7054 26.4011C26.8864 26.1942 27.1234 26.044 27.3877 25.9686C27.652 25.8932 27.9323 25.8957 28.1951 25.9761C28.458 26.0564 28.6921 26.2111 28.8693 26.4214C29.0466 26.6318 29.1593 26.8888 29.1943 27.1619L29.2434 27.5459L29.454 27.2209C29.6913 26.8519 30.0438 26.5722 30.4565 26.425C30.8692 26.278 31.3189 26.2719 31.7354 26.4076C32.0232 26.4982 32.2752 26.6767 32.4565 26.9182C32.6377 27.1596 32.7388 27.4518 32.7456 27.7538C32.761 27.94 32.8934 27.9492 32.9189 27.9492C32.9511 27.9469 32.9822 27.938 33.0106 27.9232C33.0391 27.9083 33.0642 27.8876 33.0843 27.8625C33.22 27.7207 33.3831 27.6082 33.5638 27.5317C33.7444 27.4553 33.9389 27.4167 34.1349 27.4181C34.4066 27.4241 34.6743 27.4848 34.9223 27.5963C36.2662 28.1737 35.6567 29.8845 35.6496 29.9019C35.5337 30.1854 35.5291 30.3106 35.6377 30.3829L35.6906 30.4079H35.7302C35.8197 30.3977 35.9074 30.3748 35.9904 30.3396C36.2194 30.249 36.4613 30.1954 36.7072 30.1811C36.9479 30.1811 37.1869 30.2287 37.4093 30.321C37.6318 30.4134 37.8337 30.5487 38.004 30.7192C38.1742 30.8898 38.3091 31.0923 38.4011 31.3152C38.4932 31.5379 38.5406 31.7767 38.5406 32.0179C38.5405 32.259 38.4929 32.4977 38.4009 32.7206C38.3087 32.9433 38.1735 33.1457 38.0033 33.3161C37.8331 33.4867 37.6308 33.6218 37.4085 33.7141C37.186 33.8063 36.9476 33.8537 36.7069 33.8537C36.2347 33.8565 35.7798 33.6753 35.4386 33.3484C35.0971 33.0215 34.8961 32.5745 34.8779 32.1018C34.8752 32.0177 34.8664 31.7942 34.6772 31.7942C34.591 31.8042 34.5119 31.8461 34.4551 31.9117C34.2211 32.161 33.8978 32.3072 33.5564 32.318C33.3524 32.3138 33.1513 32.2702 32.964 32.1894C31.9201 31.7648 31.9057 31.0468 31.9479 30.7582C31.9581 30.721 31.96 30.6821 31.9534 30.6441C31.9468 30.6061 31.9319 30.57 31.9097 30.5387ZM38.4369 38.5133C26.0154 38.5133 15.946 32.0604 15.946 24.101C15.9479 23.7827 15.966 23.4649 16.0003 23.1486C16.0994 23.1723 17.086 23.4086 17.2902 23.4546C23.3486 24.8027 25.3506 26.2042 25.6889 26.4692C25.545 26.8148 25.4885 27.1906 25.5244 27.5632C25.5605 27.9359 25.6876 28.2938 25.895 28.6053C26.1022 28.9168 26.383 29.1722 26.7126 29.349C27.0421 29.5256 27.41 29.618 27.7838 29.618C27.9234 29.6183 28.0628 29.6053 28.2 29.5795C28.2895 30.0302 28.4944 30.4498 28.7947 30.7972C29.0949 31.1445 29.4801 31.4077 29.9126 31.5611C30.1703 31.6625 30.4444 31.7154 30.7213 31.7173C30.8955 31.7183 31.0693 31.6969 31.238 31.6534C31.4461 32.0921 31.771 32.4646 32.177 32.73C32.5829 32.9954 33.0542 33.1434 33.5387 33.1577C33.7752 33.1577 34.0097 33.1157 34.2317 33.0338C34.3996 33.4456 34.6674 33.809 35.0109 34.091C35.3543 34.373 35.7626 34.5649 36.1986 34.6492C36.6347 34.7334 37.0849 34.7075 37.5084 34.5737C37.9319 34.4399 38.3155 34.2025 38.6244 33.8829C39.3154 34.2861 40.0924 34.5186 40.8909 34.5609C41.0057 34.5606 41.1202 34.5533 41.234 34.5391C41.5288 34.5302 41.8183 34.4583 42.0833 34.3284C42.3483 34.1986 42.5825 34.0137 42.7705 33.786C42.8061 33.7371 42.8378 33.6854 42.8655 33.6317C43.1009 33.7036 43.3452 33.7419 43.5912 33.7454C44.1232 33.7348 44.6373 33.5507 45.0556 33.221C45.497 32.9307 45.8074 32.4786 45.9197 31.9615C45.9206 31.9559 45.9213 31.9502 45.9217 31.9444C46.083 31.9772 46.2473 31.9938 46.4119 31.9938C46.9496 31.9871 47.4731 31.8209 47.9163 31.5159C48.2536 31.32 48.5317 31.0368 48.7218 30.696C48.9117 30.355 49.0063 29.9692 48.9958 29.579C49.1593 29.6132 49.3257 29.6304 49.4926 29.6307C49.9944 29.6253 50.4838 29.4744 50.9016 29.1963C51.1793 29.0263 51.4128 28.793 51.5833 28.5153C51.7539 28.2376 51.8563 27.9236 51.8824 27.5987C51.9157 27.1465 51.8069 26.6953 51.5712 26.3083C54.5932 25.0726 57.7134 24.0938 60.8992 23.3821C60.9175 23.6204 60.9275 23.8602 60.9275 24.1014C60.9275 32.0604 50.8583 38.5133 38.4369 38.5133Z" fill="#0A0080"/>
<path d="M142.015 13.5001C141.166 12.4337 139.876 11.9006 138.146 11.9009C136.418 11.9009 135.128 12.434 134.279 13.5001C133.426 14.572 132.975 15.9089 133.003 17.2791C132.969 18.6549 133.42 19.9988 134.279 21.0735C135.128 22.1224 136.418 22.6474 138.146 22.6484C139.876 22.6484 141.167 22.1234 142.015 21.0735C142.873 19.9987 143.324 18.6547 143.289 17.2791C143.317 15.9091 142.867 14.5722 142.015 13.5001ZM139.911 19.6161C139.693 19.8739 139.42 20.0811 139.114 20.2231C138.807 20.3652 138.474 20.4387 138.136 20.4387C137.797 20.4387 137.464 20.3652 137.157 20.2231C136.851 20.0811 136.58 19.8739 136.361 19.6161C135.905 18.9258 135.686 18.1051 135.739 17.2791C135.686 16.4543 135.905 15.6352 136.361 14.9468C136.58 14.6903 136.852 14.4843 137.159 14.3433C137.465 14.2022 137.799 14.1291 138.136 14.1291C138.472 14.1291 138.806 14.2022 139.112 14.3433C139.419 14.4843 139.691 14.6903 139.911 14.9468C140.364 15.6365 140.581 16.455 140.528 17.2791C140.581 18.1045 140.364 18.9245 139.911 19.6161Z" fill="#0A0080"/>
<path d="M120.306 12.6085C119.386 12.1574 118.373 11.9322 117.349 11.9513C115.643 11.9513 114.44 12.3963 113.739 13.2861C113.276 13.9209 113.016 14.6816 112.993 15.4677H115.542C115.582 15.1301 115.712 14.8094 115.917 14.5393C116.094 14.3686 116.305 14.2386 116.537 14.1585C116.768 14.0783 117.015 14.0501 117.259 14.0755C117.699 14.0501 118.139 14.1315 118.542 14.3128C118.689 14.3988 118.808 14.5252 118.886 14.6774C118.963 14.8294 118.995 15.0005 118.978 15.1702C118.975 15.3398 118.919 15.5043 118.817 15.6394C118.714 15.7747 118.571 15.8736 118.409 15.9217C118.069 16.0447 117.714 16.1228 117.353 16.154L116.449 16.265C115.638 16.3323 114.847 16.5529 114.117 16.9152C113.647 17.1832 113.262 17.5788 113.006 18.0565C112.75 18.534 112.634 19.0743 112.671 19.6151C112.646 20.029 112.714 20.4433 112.87 20.8277C113.025 21.212 113.264 21.5566 113.57 21.8365C114.215 22.3548 115.021 22.6323 115.848 22.6211C121.61 22.8796 121.545 19.5801 121.597 18.8938V15.0963C121.597 13.8782 121.167 13.0489 120.306 12.6085ZM118.967 18.3716C118.999 18.7148 118.947 19.0608 118.815 19.3792C118.683 19.6977 118.476 19.9792 118.211 20.1994C117.745 20.5275 117.188 20.7028 116.618 20.7011C116.284 20.7102 115.956 20.6033 115.691 20.3986C115.555 20.2762 115.451 20.1238 115.385 19.9538C115.319 19.7836 115.293 19.6004 115.31 19.4186C115.298 19.192 115.351 18.9665 115.461 18.7681C115.571 18.5697 115.735 18.4063 115.933 18.2967C116.316 18.1115 116.726 17.99 117.147 17.937L117.749 17.8252C117.99 17.7833 118.226 17.7219 118.457 17.6415C118.636 17.5759 118.807 17.4909 118.967 17.3877V18.3716Z" fill="#0A0080"/>
<path d="M107.166 14.2121C107.439 14.1902 107.714 14.2343 107.968 14.3406C108.221 14.4471 108.445 14.6127 108.622 14.8236C108.835 15.1252 108.973 15.4747 109.021 15.8414H111.863C111.708 14.4045 111.206 13.4023 110.359 12.8345C109.377 12.232 108.239 11.9357 107.089 11.9836C106.408 11.9465 105.727 12.0561 105.091 12.305C104.456 12.5538 103.881 12.9362 103.406 13.4263C102.459 14.5501 101.981 15.996 102.07 17.4639C102.011 18.816 102.44 20.1445 103.279 21.2058C104.084 22.1672 105.341 22.6481 107.048 22.6485C107.785 22.6968 108.522 22.5644 109.197 22.2629C109.871 21.9613 110.462 21.4997 110.918 20.9181C111.439 20.2659 111.757 19.4748 111.833 18.6431H109.001C108.966 19.1148 108.793 19.5658 108.503 19.939C108.324 20.1205 108.107 20.2594 107.867 20.3458C107.627 20.4321 107.371 20.4635 107.118 20.4378C106.711 20.4641 106.307 20.3551 105.968 20.1274C105.629 19.8997 105.375 19.5662 105.245 19.1789C105.042 18.6082 104.949 18.0041 104.97 17.3987C104.949 16.7658 105.042 16.134 105.245 15.5343C105.374 15.1324 105.633 14.7848 105.981 14.5456C106.328 14.3064 106.745 14.1891 107.166 14.2121Z" fill="#0A0080"/>
<path d="M101.31 11.9839C95.4713 11.9839 95.8169 17.1618 95.8169 17.1618V22.4216H98.4668V17.4887C98.4315 16.8745 98.5355 16.2603 98.7708 15.692C99.1347 15.0019 99.8462 14.6564 100.905 14.6557C100.985 14.6557 101.089 14.6606 101.218 14.6664C101.348 14.6733 101.494 14.6837 101.663 14.7043V12.0046C101.546 11.9958 101.469 11.9931 101.436 11.989C101.401 11.9861 101.36 11.9839 101.31 11.9839Z" fill="#0A0080"/>
<path d="M93.6923 13.9461C93.265 13.2937 92.6616 12.7762 91.9522 12.4538C91.2058 12.1313 90.3997 11.9709 89.587 11.9832C88.9234 11.9572 88.2618 12.0676 87.6427 12.3077C87.0235 12.5479 86.4601 12.9126 85.9872 13.3794C85.0632 14.3127 84.6006 15.652 84.5991 17.3974C84.5991 19.262 85.1116 20.6075 86.1364 21.434C87.1354 22.2524 88.3905 22.6919 89.6809 22.6754C90.3805 22.7163 91.0806 22.6061 91.7339 22.352C92.3871 22.0981 92.9782 21.7063 93.4671 21.2035C93.8987 20.7801 94.2153 20.2535 94.3872 19.6734H91.5766C91.4758 19.8238 91.3538 19.959 91.2147 20.0748C90.7827 20.3775 90.259 20.5198 89.7336 20.4773C89.2406 20.5057 88.7501 20.3879 88.3234 20.139C87.9775 19.9111 87.6968 19.5971 87.5086 19.2278C87.3204 18.8585 87.2314 18.4465 87.2498 18.0323H94.5814C94.6024 17.3638 94.5728 16.6946 94.4931 16.0305C94.3876 15.2839 94.1138 14.5711 93.6923 13.9461ZM87.3149 16.292C87.3762 15.7102 87.6218 15.1635 88.0156 14.7316C88.224 14.5325 88.4711 14.3788 88.7415 14.2797C89.0119 14.1807 89.2998 14.1386 89.5872 14.1561C90.1571 14.1377 90.7135 14.3317 91.1489 14.7005C91.3673 14.9043 91.5422 15.1504 91.6625 15.424C91.7827 15.6977 91.8461 15.9931 91.8486 16.292H87.3149Z" fill="#0A0080"/>
<path d="M79.335 11.9495C78.7609 11.9445 78.1929 12.068 77.6726 12.311C77.1522 12.5541 76.6926 12.9105 76.3273 13.3543C75.9682 12.903 75.5095 12.5414 74.9873 12.2976C74.4651 12.0539 73.8935 11.9347 73.3176 11.9495C70.7302 11.9495 69.0608 13.8539 69.0608 16.3749V22.4208H71.4824V16.3165C71.4672 16.0691 71.504 15.8211 71.5903 15.5887C71.6765 15.3564 71.8103 15.1446 71.9833 14.967C72.1562 14.7896 72.3642 14.6504 72.594 14.5582C72.8239 14.4662 73.0704 14.4234 73.3177 14.4324C73.5629 14.4196 73.8079 14.4605 74.0355 14.5523C74.2633 14.6442 74.4681 14.7847 74.6359 14.9642C74.8037 15.1437 74.9303 15.3577 75.0069 15.5912C75.0835 15.8249 75.1082 16.0724 75.0794 16.3165V22.4208H77.5009V16.3165C77.4874 16.0696 77.5252 15.8224 77.612 15.5908C77.6986 15.3592 77.8326 15.1481 78.0049 14.971C78.1773 14.7939 78.3847 14.6546 78.6137 14.5619C78.8426 14.4692 79.0883 14.4251 79.3352 14.4324C79.5812 14.4195 79.827 14.46 80.0559 14.5515C80.2846 14.643 80.4908 14.7832 80.6601 14.9624C80.8295 15.1416 80.9581 15.3554 81.0368 15.5893C81.1155 15.8231 81.1426 16.0712 81.1162 16.3165V22.4208H83.5358V16.3749C83.5356 13.7765 81.9779 11.9495 79.335 11.9495Z" fill="#0A0080"/>
<path d="M129.545 10.6581L129.542 13.5017C129.259 13.0374 128.862 12.6534 128.389 12.3866C127.892 12.1125 127.331 11.9739 126.764 11.9844C126.156 11.9636 125.553 12.0867 125.002 12.3436C124.451 12.6006 123.969 12.9841 123.594 13.4631C122.743 14.6657 122.325 16.1215 122.407 17.5929C122.351 18.9218 122.78 20.2257 123.612 21.2621C124.416 22.2127 125.99 22.6309 127.389 22.6309C132.268 22.6309 132.211 18.4407 132.211 18.4407L132.213 8.79632C132.213 8.79632 129.545 8.51049 129.545 10.6581ZM129.036 19.6381C128.847 19.9103 128.592 20.1298 128.294 20.2754C127.997 20.421 127.668 20.4881 127.337 20.4703C127.01 20.4902 126.684 20.4233 126.392 20.2763C126.099 20.1294 125.85 19.9075 125.671 19.6333C125.275 18.933 125.085 18.1349 125.122 17.3311C125.095 16.5718 125.282 15.8202 125.661 15.1622C125.837 14.876 126.088 14.6434 126.387 14.4892C126.685 14.335 127.02 14.2653 127.355 14.2872C127.841 14.2809 128.314 14.4514 128.685 14.7675C129.306 15.2983 129.618 16.251 129.618 17.4827C129.651 18.2442 129.447 18.9973 129.036 19.6381Z" fill="#0A0080"/>
<path d="M74.6596 26.478C72.4774 26.3749 71.3751 26.8959 70.657 27.445C69.6644 28.2034 69.0608 29.3258 69.0608 31.1191V40.3392H70.3436C70.69 40.3435 71.0254 40.2176 71.2838 39.9864C71.4192 39.8673 71.5274 39.7201 71.6007 39.5553C71.674 39.3904 71.711 39.2115 71.7088 39.0309V35.5853C71.9942 36.1001 72.4286 36.5164 72.9547 36.7789C73.4934 37.0189 74.0781 37.1372 74.6675 37.125C75.2472 37.1358 75.8212 37.0089 76.3426 36.7546C76.8639 36.5004 77.3177 36.1259 77.6666 35.6622C78.4878 34.5234 78.8993 33.1395 78.8341 31.7362C78.9028 30.3441 78.4572 28.9751 77.5823 27.8912C77.2205 27.4645 76.7735 27.1184 76.2702 26.875C75.7668 26.6316 75.2183 26.4964 74.6596 26.478ZM75.5631 34.0457C75.3861 34.3039 75.1471 34.5132 74.8682 34.6546C74.5893 34.7959 74.2793 34.8646 73.9668 34.8545C73.6426 34.8711 73.3192 34.8057 73.0267 34.6645C72.7341 34.5231 72.4818 34.3103 72.293 34.0457C71.8573 33.4012 71.6516 32.6282 71.7092 31.8519C71.6467 31.0442 71.8367 30.237 72.2526 29.5423C72.4365 29.2815 72.6826 29.0708 72.9685 28.9296C73.2544 28.7884 73.571 28.7209 73.8895 28.7336C74.2137 28.7177 74.5368 28.7834 74.8292 28.9246C75.1215 29.0659 75.3739 29.2782 75.5633 29.5423C75.9951 30.2318 76.1997 31.0397 76.1484 31.8519C76.1908 32.6269 75.9857 33.3953 75.5631 34.0457Z" fill="#0A0080"/>
<path d="M97.4184 27.429C96.4504 26.678 95.235 26.3211 94.0154 26.4298C92.4095 26.4736 91.2412 26.9236 90.5145 27.91C89.7446 29.0464 89.3625 30.4018 89.4257 31.7737C89.3725 32.9275 89.6579 34.0717 90.2466 35.0648C90.7109 35.8256 91.4001 36.4228 92.2184 36.7736C92.9499 37.0792 93.7586 37.1472 94.5307 36.9679C94.9142 36.88 95.2762 36.7156 95.5949 36.4845C95.9136 36.2533 96.1827 35.9603 96.3859 35.6228V36.274C96.3872 36.9368 96.1801 37.5833 95.794 38.1217C95.5056 38.4936 95.1006 38.7575 94.6443 38.871C94.2221 38.948 93.7867 38.8957 93.3948 38.721C93.0028 38.5461 92.6727 38.2571 92.4474 37.8913H89.6557C90.3785 40.0684 91.6769 41.0288 94.0155 41.199C97.7881 41.471 98.9903 38.2714 98.9865 36.5452V31.1206C98.9864 29.3272 98.4033 28.1784 97.4184 27.429ZM96.3092 32.7573C96.2564 33.2337 96.0852 33.6891 95.8115 34.0821C95.3273 34.748 94.5757 34.9855 93.5564 34.7945C92.5357 34.6011 92.0252 33.6203 92.0252 31.8523C92.0105 31.0956 92.1678 30.3455 92.4852 29.6586C92.6465 29.3388 92.9011 29.0757 93.2151 28.9042C93.5291 28.7328 93.8878 28.661 94.2434 28.6983C94.5242 28.6825 94.8045 28.7376 95.0584 28.8586C95.3124 28.9794 95.532 29.1623 95.697 29.3903C96.0319 29.8576 96.2486 30.3992 96.3288 30.9688C96.4173 31.5622 96.4107 32.166 96.3092 32.7573Z" fill="#0A0080"/>
<path d="M87.16 27.1605C86.2401 26.7105 85.2269 26.4853 84.2034 26.5035C82.4977 26.5035 81.2947 26.9486 80.5947 27.8389C80.1319 28.4733 79.872 29.2336 79.8495 30.019H82.3986C82.4385 29.682 82.5679 29.3618 82.7732 29.0918C82.9494 28.9212 83.1606 28.7912 83.3923 28.7109C83.624 28.6306 83.8703 28.602 84.1141 28.6271C84.5545 28.6014 84.9946 28.6828 85.3969 28.8643C85.5441 28.9505 85.6634 29.0771 85.7406 29.2293C85.818 29.3814 85.85 29.5526 85.8328 29.7225C85.8304 29.8921 85.774 30.0566 85.6716 30.1917C85.5693 30.3268 85.4265 30.4257 85.2642 30.4739C84.9236 30.596 84.5688 30.6741 84.2085 30.7062L83.306 30.816C82.4948 30.8837 81.7037 31.1043 80.9743 31.4663C80.5038 31.7339 80.1185 32.129 79.8625 32.6064C79.6065 33.0837 79.4904 33.6239 79.5275 34.1644C79.5025 34.5783 79.5702 34.9925 79.7257 35.3768C79.8812 35.7612 80.1204 36.1057 80.4261 36.3853C81.0712 36.9045 81.8769 37.1822 82.7045 37.1707C88.463 37.4294 88.3984 34.1294 88.4507 33.4443V29.6464C88.4506 28.4298 88.0204 27.601 87.16 27.1605ZM85.8209 32.9222C85.8532 33.2653 85.8012 33.6112 85.6697 33.9295C85.5381 34.248 85.3309 34.5294 85.066 34.7494C84.5999 35.0775 84.0435 35.2528 83.4737 35.2509C83.139 35.2601 82.8114 35.1533 82.5461 34.9486C82.4107 34.8263 82.3058 34.674 82.2397 34.5039C82.1734 34.3339 82.1477 34.1506 82.1647 33.9689C82.1531 33.7421 82.2055 33.5166 82.3159 33.3182C82.4262 33.1198 82.5901 32.9566 82.7887 32.8471C83.1708 32.6621 83.5805 32.5406 84.0016 32.4875L84.6042 32.3757C84.844 32.3347 85.0799 32.2736 85.3097 32.193C85.489 32.1274 85.6604 32.042 85.8209 31.9385V32.9222Z" fill="#0A0080"/>
<path d="M109.005 27.9983C108.154 26.931 106.864 26.3978 105.135 26.3984C103.408 26.3984 102.119 26.9317 101.269 27.9983C100.417 29.0695 99.9658 30.4059 99.994 31.7753C99.9594 33.1509 100.411 34.4945 101.269 35.569C102.118 36.6168 103.407 37.1413 105.135 37.1426C106.865 37.1426 108.155 36.618 109.005 35.569C109.861 34.4937 110.312 33.1505 110.277 31.7753C110.305 30.4063 109.855 29.0703 109.005 27.9983ZM106.899 34.1101C106.681 34.368 106.409 34.5753 106.103 34.7175C105.796 34.8597 105.463 34.9333 105.125 34.9333C104.788 34.9333 104.454 34.8597 104.148 34.7175C103.842 34.5753 103.57 34.368 103.351 34.1101C102.894 33.4213 102.675 32.601 102.728 31.7753C102.674 30.9509 102.894 30.1318 103.351 29.4447C103.571 29.1882 103.843 28.9824 104.149 28.8413C104.455 28.7002 104.788 28.6271 105.125 28.6271C105.462 28.6271 105.795 28.7002 106.102 28.8413C106.408 28.9824 106.68 29.1882 106.899 29.4447C107.353 30.1336 107.57 30.9518 107.517 31.7753C107.569 32.6002 107.352 33.4195 106.899 34.1101Z" fill="#0A0080"/>
</svg>
